<svg id="visual" viewBox="0 0 540 960" width="540" height="960" xmlns="http://www.w3.org/2000/svg" xmlns:xlink="http://www.w3.org/1999/xlink" version="1.1"><rect width="540" height="960" fill="#F2F2F2"></rect><g><g transform="translate(96 442)"><path d="M92 -72.5C117.7 -41.2 135.9 -3 128.6 29.6C121.4 62.1 88.6 89.1 54.9 99.8C21.3 110.5 -13.3 105 -40.4 89.8C-67.5 74.5 -87.1 49.4 -95.6 19.7C-104 -10 -101.3 -44.3 -83.5 -73.9C-65.8 -103.5 -32.9 -128.3 0.1 -128.4C33.2 -128.5 66.3 -103.9 92 -72.5Z" fill="#E2E2E2"></path></g><g transform="translate(379 770)"><path d="M32.6 -29.3C38.7 -18.5 37.5 -5.1 36.9 12.8C36.3 30.7 36.3 53.1 26.9 58.8C17.4 64.5 -1.5 53.5 -18.5 43.4C-35.5 33.3 -50.6 24.2 -54.6 11.1C-58.7 -1.9 -51.7 -18.8 -40.8 -30.8C-29.8 -42.7 -14.9 -49.8 -0.8 -49.1C13.3 -48.5 26.6 -40.2 32.6 -29.3Z" fill="#E2E2E2"></path></g><g transform="translate(232 154)"><path d="M46.3 -41.1C57.7 -22.6 63 -3.5 62 19.3C60.9 42.1 53.3 68.5 34.3 81.7C15.3 94.8 -15.1 94.6 -30.9 80.7C-46.7 66.7 -48 39 -53 13.2C-57.9 -12.5 -66.5 -36.2 -58.3 -54C-50.1 -71.7 -25.1 -83.5 -3.8 -80.5C17.4 -77.4 34.9 -59.6 46.3 -41.1Z" fill="#E2E2E2"></path></g></g></svg>